<mxfile host="Electron" agent="Mozilla/5.0 (Windows NT 10.0; Win64; x64) AppleWebKit/537.36 (KHTML, like Gecko) draw.io/24.7.17 Chrome/128.0.6613.36 Electron/32.0.1 Safari/537.36" version="24.7.17">
  <diagram name="Page-1" id="do36TqxPjK4vU5IllulZ">
    <mxGraphModel dx="946" dy="620" grid="1" gridSize="10" guides="1" tooltips="1" connect="1" arrows="1" fold="1" page="1" pageScale="1" pageWidth="2339" pageHeight="3300" math="0" shadow="0">
      <root>
        <mxCell id="0" />
        <mxCell id="1" parent="0" />
        <mxCell id="g2LWMqXtfTZeT1RegNXu-1" value="" style="shape=image;verticalLabelPosition=bottom;labelBackgroundColor=default;verticalAlign=top;aspect=fixed;imageAspect=0;image=data:image/png,iVBORw0KGgoAAAANSUhEUgAAAO0AAAIzCAYAAADs5p75AAAAAXNSR0IArs4c6QAAAARnQU1BAACxjwv8YQUAAAAJcEhZcwAADsMAAA7DAcdvqGQAAF4iSURBVHhe7b2HV1tpmq87/8m998ysc8+aOWfSmTl9p6e7p2eqp7unq6vKVa7gnKucM8aJYJIBY0zOyTYG2xiTDTYm55xzEDkKkEA5/u7eQhghBBJBsEW9T6/fsrX3FqLXqsff923t733/AgRB2BQ6aRcEAgqFYiP5i4KCj8jLe0+hUGwkfzE7NQUKhWI7+QsBnw8KhWI7IWkpFBsLSUuh2Fj+oq+7CxQKxXbyF21tzaBQKLYTeriCIGwMkpYgbAySliBsjG2RViwcx0BzxqrMjjZAo1LoryIIYjvYFmmFU73oqwzETPtyJpoC0VsZhZmhGmg0av2VBEFslW2TdqAmEKLe5Sz0BGK6ORDd5RHoqnyO7qqNp78hWf8JBEEssW3SjtSHQTkcsyqSwUiIB2PMp5+5rj/iU4RdEegsj9V/AkEQS2yrtKqR2E1FwUQ2yGRgOVJe5JrSqoZyERCUgNL2adDEm/i5sevS6oQdWinsutJqFeh5F4XQ17nontPoDxLEz4dP0qrVakxMTKCzs9Ns+Hy+/l2LbFbatYRdT1qtpBupETF4k9+GeXKW+BnySVqpVIrk5GScOHECX3zxxZo5c+YMCgsL9e9aZDPSmpoSG8a0tFoIW98hIjYRxd1C5hVB/PxYMT1eWFjA27dvcerUKZPCnjt3Dvn5+dBoVg5xG5V2vRF2KSal1QhRnxGPOGZqzBOTssTPk1Vr2vn5eZ247IhqKOyFCxd0wioUqx+W2Ii0lgjLxpS0qpkmpDyPxeuCPkjJWeJniskbUUKhEKmpqZ/EvXTpkk5YmUymv2IllkorH2aEXGdKbJjV0ioxUfcOT2PiUTIsp6kx8bPFpLQsrLgpKSlwdXXVCcuuedfCEmnNrWGNYyytVj6J8swXiE4owoRSf5AgfoasKS0LK+7Q0BAkEon+iGnMSStnshFh2ayUVgvpSD1SnoXiVfkUVPqjBPFzZF1pLWU9aTc6wi5lhbRaGQaqsxAb/BR1c/Q4BfHzxqrSWnrTyVQMpdWKRlCRHo7AhBqIaDFL/MyxmrSbmRIbZllaLRYGG5AS4omkVindgCJ+9lhF2q0Ky2bFSKvVQK1SQk3GEsT2STtUGwrpQAwkTER9THq3loUe2uVDEKbYFmlFs8PoqUnc9vCa0vSfQBDEEtsiLUEQOwdJSxA2BklLEDYGSUsQNgZJSxA2BmekLS8vx+TkpP4VQRBrwRlpR0dHIRaL9a8IglgLzkg7yatEX13SivCaUiHi9+ivIAiChTPSDrXlYLwpEHOdyxlrCEJvdTwW+L36qwiC4JS0060ruxTMdzPi1gehrTgM7aWRmwo7ghPEXsJq0iqVSmi1lj/hz0or7I5asVOIjXIkBrKRKCax5jMQ+SnshoOJpjCM95boP0GAQj9H+GXVYUpm6vfSYqq5EM+DfPF+gGqzEtzFatK+f/8ePB5vVeXGtVhLWksjY+tPrdgpFMOM3BuRFlAszGFsaAD8tSvrEMSuYzVp2dpSbm5uFou7WWmVTHQF41YIuzlpCcIWsKq0bCVH9s/+/n790bXZjLSfhDW5d3cNaVML0dDUgPKiAhSW1aBrbOFTPyD5PB/D/b2YkrBSqzA72I/hiTEM9baiqrQQBcXlaOHNgurKEbuJ1aVl4+zsjIGBAf0Z02xU2vWFZWNKWnvccfWAj7cHHOyv48rVy7D3eIa6KVZDLSYb8xDj64msfnZmIERpyEN4+nrDL8AHD+7a4crlc7hwOwDlVA6S2EV2RFo27FS5r69Pf3Y1G5HWvLBsTEl7GaeveyKtbhgihQILI3V4evcEbsS1gS1ks1pae5y75IiEsh4IZCpIp9vx/OY+XEjgUdkbYtfYMWn379+PjIwM/dnVWCrt2mtY45iS9jY8kioxrpv+MmjVmKwLxrkfI9GjMSXtfbjE5WJgfrkC5ETWDXzjXITVfRYIYmfYMWm9vLwwODioP7saS6S1bIRdiiU3ojQQjmXD+bALyuSmpHWDf2o5Rg16kAiKHuC72znMyEwQu8OOSOvu7o6RkRH9GdOYk3ZjwrKxUNrxHDw45IpSi6V1wfe3s0laYtewurQeHh66LgXmWE/ajQvLxvSNKPfXzPRYzErJwEyPp2sD8OPZaPSpSFrCNrCqtKyww8PDFj0ZtZa0mxOWjSlpr+DQ8WsIz2vFrFgKYV8hnpz9Bnav+qBkfkeSlrAFrCZtbm6uboS19FHGtaRd/aSTpTEhbYAXQp4Hw9P+DD7/7b/iV/+5H3Yh+RiWsTeaSFrCNrCatOxTUFt99njxeeLNxlhaLTQqFVRqJkoF5DIZZDI5lCrm91y6gvmdVcw1i0XR2euVzPXL51m0GiUUSuonROweVpN2oxhLuzVh2RhLSxB7A05JO90WAVFfNLPWZNK91URhvDGUpCX2HJyRdmqgBrzGlG3PzGiL/hMIYm/AGWkJgrAMkpYgbAySliBsDJKWIGwMkpYgbAySliBsDJKWIGwMzkg71lOC7qrnK9Jb+xLzU536KwiCYOGMtOwTUZPNiwXKlzLRGIjuijhG3C79VQRBcEra6dYgiPuWI+oNwkRTENqLLUzRyrQVBq7YMKCUSSBTqKCxfB8DQXAOq0krlUqhVlu+G8bULh82bIcB+UgUk9h1s7jBIOpTNt5hYJvQapj/3+wOJ/1rgthmrCZtZmYmOjs7LRZ3LWktCbtRfjs6DGwHWtEw6psGIBRTmVXCOlhNWrZyhZOTE7q6un5WHQbUPUm45hCLpsG5FftwCWK7sKq0bI0oR0dHdHR06I+uzWakXb8UzRrSvv2IyooS5KSlIPVdHhoGBFDpr2DXvfL5SXTVFuJdeirSsphr20exIF+eLWg1ckx0ViHvXRpS0rKQX9mG0Tk5u2UeM331yI26ha9+uITHoU+RVTMKJS2giW3G6tKyuXv3Lrq7u/VnTLNRac3XjjIl7S3cdHiAR75P4O3hAsf7N3HLKQxlo4tVjJXzI6hMC4O7owOcHjyAywNH3Hd6jNeVPIiV7GxBg8mGJHjdv8Ocd8GDB85wcnRH8MsC9M1JMVKThQiHw/i3332LC9fv4klaB+SLZTAIYtvYEWnZODg4rDvibkRa3Rp2yFhS45iS9gp+uu2HnOYxRkIlxBMteP3gNK5ENkKskWKoJgW+950QW9AJvlgGqWAI1a88cNnhOZomRdAo+vDs8lHcfV6OQUZShXQOvPIk+Lp5Iu5jL9ga6DQ9JqzNjknLjQ4Dd/DwTRUmDDoMTDWG48LpMHRKxlHxNgiuvpkYli/rpp2vR8DF+0honYB04AWOfu+DRrGBjvJxFD0PgX9UNngykpawPjsm7ZMnTzA+Pq4/uxpLpDU/JTaMJTei9MXKDz9AyVQ/Pr7wgduzBsj1Z3VoZ5Bx/xoCSoewUO6B31/JgEh/ahEp2rKeIyTsJZrmtCQtYXV2RNpHjx5hampKf8Y05qTdmLBsLJfW+aArSvgDyE/0hVtsDcT6szo0E0i+dQMhVSMQ1T3Gn84nY05/SodWhKa0p4y0SWidJ2kJ62N1aX18fDA5Oak/ujbrSWv5lNgwpm9Eub2qMOgwoMJUlS9OnYtjprZ81GeGwc3tKVpFy19Racbew+FHN2T28KGczcGVP19BDn/5vHahB5nhj/EktggTKv30+F4s6gfmmH8SCGL7saq07AjLCrvVDgObK1hu+kbU9wfPIyCnEXyRBHPdH/Dw+Je4nTIENbO+FfQUIez+RdwJ+4BevgiCkVrE3j2Nc74fMCxUMIaKUeF7CF9fDUf5gBAi4QhKXnjj+k0PpDYuSqoef4/7Zx0QXzUEkXL5yySC2C6sJm1xcbFFI+wSa0m7fR0GhCgOeYK45Gj43D6J//yXf8I///s3uBNbDf7S1zJaOaY68hFqdxif/fKf8IvffoVLj9PRNSn+NGoqpSP4GHgd3/zHP+OffvEbfHfJBxn1Y5AvXaCdQ3XcHXzzm1/gV0fC0EtPRhHbjNWk3SimpN3eDgMEsTfgpLSbnxIbhqQl9iacknayJUIn7iybjq0mEqMN1GGA2HtwRlr+cCMjbva2Z27C/HPPBGFLcEZagiAsg6QlCBuDpCUIG4OkJQgbg6QlCBuDpCUIG4OkJQgbgzPSjnTmob00ckW6Kp9CONGqv4IgCBbOSMs+ETXdGghR73KmmgPRVR6JudEmqJWyTUWjpgf2ib0Fp6Tlt7GdBYI/RdQbzIgbjM7SICbsn+bCXrcctuvA+o8xaqES8zE+K9W/JgjuYzVp5+fnoVJZvp/U1C6fxc0DbIeB6FUdBYyzusNAFCabzWwY0Kgw/u4ODriXwvJeCASxu1hN2pSUFDQ3N1ss7lrSWhLTu4Is2OVD0hI2iNWkZStX3LlzRyeuJa1BNivt2qVoSFpib2JVadkaUbdv30ZjY6P+6NpsRtpPwlrUYYBFAX5vNbKT4xEb9wKp+fVoTjWUVgOZYARNhRlIfBaH+NfvUN07BalKjYWOPLxrnDao+6SFbHYUbbWV6OJTWRli57C6tGxu3ryJlpYW/RnTbFRaBZP1C5avllY6UIRwTwfcd/eCX2AwQoL94Wl3APt10mqhFAyiJCkALo6u8H7yBD4eTrjnEYuyfj6mSr1wxC4FU59K08gwVJ+FYA9/FI6RtMTOsSPSsrG3t0dTU5P+7Go2Iq1uDbvRDgPaedTGuuKu70tUDQqgVMshGKrHi/vfYh8rrUaCwco3eHT3AZ6X9mNOKsfCZAdSH92G59t6TE/Xwvv4VaSPL47JWukk6jJC4BlSwIisO0QQO8KOSbvrHQbkHYhz9EBcYQeESwMjs6YdSrmB7xlpVdIxlCX5wdk7DQMGdZEFRU9w+UkOBmeEaA08gyvJo8xRLSQTncgIdkJU2azBlJkgrM+OSRsSEgI+n68/uxpLpF1/DWscI2kFFfB3DEJ63SCkn5xcvhGlEvYj1/8MfvUvn+Gr/d/i228X880f/hX/51wMeqckUPTF4acLLzCkkmO84z2CnENRKzRfHpYgtpMdkdbf3x9CoVB/xjTmpLVsSmwYI2kXKhHg8ARptQOmpZ3nIT/eA/aPktHY1oa2T2lHx9AM5CpmPFWP4un5M0jo5KMjywcuUXW6plsEsZNYXdqAgADMza1opGGS9aTVCWvRlNgwRtKq+/HayQHB2U2YUepNUyvRl3AJ37FrWtUMGt8/he+TFPDWfPJRg6HXV3DaJw9p3rfxomNF1x+C2BGsJq27uzuCgoIgEAj0R9ZnLWk3JywbI2mhxmiODzO9dcSLkh7Mzk6iPS8MZ7/4rf7usQYLvArEPbyBB1F56BmfwexoOz7GBiGhgod5xaLo0vE0XP3uOG7cewEe3TQmdgGrSVtVVcWIMat/ZZ61pN2+DgMMagFaUv1wbv9n+Ndf/x6H7SOR+zEY9sE1+u9pVZjlVeHZgzP48rPf4LPPD8EuOBvds1L9eeYK2Qxy3E/AOW3k0zGC2EmsJu1GMZZ28yPsUkxISxB7AE5Ku3Vh2ZC0xN6EU9KON4VjtjMSfDZtW00EhutCSFpiz8EZaWfH2zDaVbDtEU736j+BIPYGnJGWIAjLIGkJwsYgaQnCxiBpCcLGIGkJwsYgaQnCxiBpCcLG4Iy07MMVbUWBK9JRGo7ZkTpoNfSUL0EswSlpTXUY6C6PxMxQLeQSwaaiUlIhcmJvwSlp+W3BkPSHfIq4L4QRORg9FWxCzKecuc4gnSXmOgwQhO1hNWnZbXkKhUL/yjyGGwYMY9UOA4ZotVCrlFAoqeITwW2sJm1SUhJqamqgVFrWAGstaS2J6V1BG9zloxBisK0GFc2TVKiN4DRWk5YtN8PWO2bF5WyHAQO0bI2ohMd4+LQOls8PCGLnsaq0bI2oGzdu6KpYmGMz0q5fsNyUtCrM9VUjIz4MT3z9EZGYg44ZBWTCMRRG3cPZI/vwxcFr8H2ahcZBEbSMvtPdlUh/Hg4/3ycIjnmLqv55GomJXcXq0rK5fPky6urq9GdMs1FpN95hQAtRby5C3J3g8SQUMbHRCPK8g9veqejk81Gf4o97l47i4Hk3vMgqQ8+EGIKuDwj1cofnkzBEx8Yg7Ikr7O19UTJOxaGI3WNHpGVz7do13VR5LTYirW4Nu9EOA8oxfPBzhEPgWzSMzEOhkmNusAaRN88gqGph9fRYPY78EA88jExH09gCc70SYn4/3nuexI3kIRptiV1jx6Td7Q4D2slieN/xxMuyfoj1S2ytWo6ehIv4KbITaiNptXNVCPbwQ3J5LyQGhson29E6LGbGbYLYHXZM2ujoaF2j6bWwRFrzU2LDrJRW05uGW4f+iH/55a/x7599hs/Y/Md/4N/+9V/wtU/VYrFyA2k1I7l46BWO9w2jzErYEC377RBB7Bo7Im1oaCik0vWfTDInrWVTYsMYSTvwDs4uwcgobsHo2BjG9BkfnwR/QbFqeqyZLILPwxBk1A6BSpITXMKq0u7btw8RERGQSCT6o2uznrSmv4c1F6M1rawTz119kFjCNuBaHCq1Wo3ugQq2e6VO2heP4R5Tu9g2RNmLJLcHCEqrxaSMGV3Z6zVqjOf64WHaMNU8JnYNq0nr7e2tmxKLRCL9kfVZS9rNCcvGSFpoMF0agdv27niaXYv+gQF01eXimc9jZA+roZVNoOLNE9jfi0RJ3xTmxTJMlETi1g1HRGRWoqevDw15z2B35CTiWumbXGL3sJq07Fc8lrYEYTEl7canxIYxlpZFjuGq1/C8cgRf/vkLHPjpLqILeBDrzinB7y1GmN0xfHvsHl4UsjegJOgvToDrJeb6r/bjyCUXvKmbojvHxK5iNWk3irG0mx9hl2JKWoKwfTgp7daFZUPSEnsTTkk72hCG6bYITLJp2XoGa6jDALH34Iy0gqkeTPZXbHsWZgb0n0AQewPOSEsQhGWQtARhY5C0BGFjkLQEYWOQtARhY5C0BGFjcEZajVoJtVK2KlSonCBWwhlp2YcrOooD0VmynK6yMPAHq6BR0QP6BLEEp6Q17jAw3RKInooITPEqIJmf2FQUsrU33hOELcIpaWfa2c4CoSsy0xaC/mo2oeZTFbycymB0lRp2GFBihtcF3pQQctqmQ9gwnJLW9H7a7eowIEChnyP8suowJVvcBE8QtgjnpbUkpvfdGu/yIWmJvYHNS7t2sTeSltibbKu04+PjePv2ra6Q23pJSEgAj8fTv2uRzUi7sQ4Demnf5iA3PR4BHk5wdH+CxOJ+LBfE0UA01YOiNxHwdnsAF89AJH5sxbRYuVgyVcNHUVQ8KnobkBL5GG4P3OD3NBP1Q7OYHapH5lN/uLm4wScqEy2TIuhLUUGtFKIzPxEBDx/gAfOZ8Tm1GBFRwXNic2yrtGyJ1LS0NJw+fXpF+VTDHDp0CM+fP8fMzIz+XYtsVNqNdxhgpbXDhctX4RLyHMlpKXjz1AfXfryGxHa2UqQWsulOZEW54r6rP54lvUVyQjjc7e/AP6sFApkaUPHgv+9zXPD0x9PkNKS9jsGj+/a4d98dAVERiHiWhLdv4uF35yJuhBdhipVdo0T/+0e4dtUZYYnJSHoRAS8Xd4Sn1mLast5kBLGCbZ8eLyws6MQ9efLkKmF/+OEHxMfHm6wdtRFpLasdZUraSzjnEo2yHj5kKjVUogkU+x7D6fA2aDQL6Cl+Ac/7j5DRNgWxQgWlVIChknBcuRaK8hEh1Iy0fvv+A3bJnZiRKKFSiNBXEI87J47gTuQH9M5JoVRKMdsYhws/+aNqcgHKhXr4HD4G33weIz77M+fQ/uEp/AMiUcST6X83grAcq6xp2ZKpbDeBY8eOfRL2m2++0QnLSm0KS6W1vGC5KWnvwTulChNS/Xc+GhXGcu7jkHMhpJIRlCQFwC2oAHyDh7C0sm7EXL2N2MYxyBU8BP7wPaJ6l6e20r4ihD96gND3PHwaOOXV8DrqhPSROYhbQ/DDoUB06Oqysmih4BUiNjwYryqorSaxcax2I0oulyMzMxMHDx7USctOiWWytUcWS6TdSocBkzeiGGknPrriqOMHSAR9yI1/BLcXTcvy6RDgndNV+BUNQiLnIejAITwbXLZaMViBZ6FPEFs4tiyguhH+R+7hzcgsFgru4+/+8v/F3/7DP+If/3Ex//C3/wt/++eLiC6gnkDExrGatCwajUYnbmJiotketeak3Xg51Q1KKxpE4Ss/uEVWYH5pUGRRDePlDTtE1I5Cxoy0pqX1W1NaUe0j7L+eAr5UquuysBgZZHIFVBrDDyIIy7CqtBthPWk3V51xY9JK1UK058bCwzEAJWMSKNVa3TPPwtYEXD/ri4LBOaiYNe1GpZULS+By7D5yJyRQqDXQatVQyiTMEkIGJQ2zxCbgvLQbmxIbZoPSMmtNyWgjXj2+hVsP4/C+vA7VhW/x6PoFODyvBp9ttbcJaZUaOdoSb+H8nTBkldShqb4Cua+fISE1Hz1CspbYOJyWduNTYsMYSytCU3Ickiu7IVDopWVGvdn65/CMq9U32VJBONyI1GAnXDh1FCfO2sH3VTlGhfLF72nVE0h188CHyWXZVJPt+JCejJymmcVrWDS9ePswGsXTC7qePyr5DGrf+uH2ueM4duo8HPxfobyPEXrxaoLYEJyVdnNTYsMYS0sQewNOSrv5KbFhSFpib8IpaYfrwjDRHI4xNo1bD6+aOgwQew/OSMt2AuAz68ntjlgwqv8EgtgbcEZagiAsg6QlCBuDpCUIG4OkJQgbg6QlCBuDpCUIG2NPSSuXCFZFKVuAVkOlXYi9w56StqUgCN1lgSvCq30B4WSnru0IQewF9pS0bUVBKzoUzHcHYrQ+EAP1CZgZadA9wLGZqFWL2wkIggvsOWmlvNAVEfWGYrIlFIN1FqSWSU3IpwxUh6CjOAgS4bj+EzaBVgvpaD2Km6eWdwFtEOnMKHo62jEm2uxPIPYSnJVWy/zH3tfXp39lGe2MYEu7hAzDdilQ6LK4GcFUdF0KhmMgG4j+FLZLQV9l8NakZffsvruDA26lum16G0eLud46fMhIQ8MUSUtwWFqlUglXV1d0d3frj5hnLWmNI++OgKwjHCpGUvY1uw1Qzm4DHDTcJcQmWtcXaHelBdQyMYSCOYhpWU4wcFZahUKBr7/+Gi4uLujq6tIfXR9LpJW2h2Ew7DZ6vW9CVL94vWlh2XBDWoIwhNPSLpVeZcXt6OjQn1kbc9KKm0PQ738LNccPofLAAXQ6X8R8TeAawrJZLa1aPIzCZ4/hcPMKrtx0REBiHrqnDW9USTFUk4IA11u4fOU2HkZnozJZL61WgcnOOuQmJyO3gLnmgT1u2DkiMLkKY/NCDFa8hq+THS5duwf/V+UY07XlZabHfQ3Ie5eJpml2eixG+7s0FNRXIi85Ai72V3DJzhnR77uYM8TPAc5Ly2b//v148OCBWXHXk3ahLpAZXa+h5uhBVHz3Haq/O4CawwfR7ngJs2V+JoQ1Ja0Y5YEXcdk5Cik5ecjNSmTkdIR3dC4G9d4utLyBy6078I57i/ziAmQlPsHNY59jn05aKfpKkuBw5AjuBj1Fel4+PiQF4daP1+D9xB1Oj+OQlluMvMyncL98Bq5pPKgYacdr3yHS3xcfBtgyNwIU+d/FlYuX4B77Fh+LS/A+KRBXj/+IuCbJ4i9B7GlsQtqlEdfZ2RmdnZ36K1azJK1iJBqSiQhoBa+h7n8Gcb4f2r0uou7Ho6j8+gc0fHsULQdPo4T5e9PlC2j3vAVxThhUtQlQ8d6sLa16CCmPglA4Pg+5Sg21Uozu/ET4+/ojf4gRSjODwgAHuDASd/Nl0GjVkM2Po9jvmIG0CXhw9TYS66YhZbscyASoDruGr364haT6IWbdqoFaLkBXjjcuXE/EkMaUtJdxySMe9YNCKJnzKuksKkJO4HhoM9VR/hlgM9KyuX79OpqamvRXrGZJWvlIFITD/hD1BWGiyA2d4VeQffpPyP/+S9T8cBA1Xx9C6+EzKNi3H2VnjqHg8hGMPnsI4fsQKFuery0tM+5JRRKDgmxaTDW8Q1TgY2R2qwBZEyLuP0JieQ9ES/Ywa9qxTHv8sCRtaTL83fxROr2s11yBN044vUTX1NJIqQK/PxlOJ56gXm1KWgf4pLGdEvR3k5l/HMY/3MdBp3xQo5G9j01I++WXX+LSpUuorq7WFUBfi0/T4/EYqASR0ExHQ8usV9WVoWhyPY3ik/tQc+QASvd9g86fzqH61FHUXT+NetcLUBfGQNv0EuqexHWk1UDYmY1Hlw/hD7/6Z/zd//yf+Ov//t/x78edF6WdLYefczAy64bxqZum4Y0onbRvEegRiPKZ5f8f4rJAnPVMR//0knIqzAxmwPW4N6pMSusEv6xaTC59CCPtZJ4LjjiwpWCJvQ7npf3qq69w5coV1NTU6M+szfJIGwnBqA9EQ/7QTicAw2/QGnwFH0/9CQWH/4ya0wfAu3MFlecOovzGYTT6XgaaX0HbngBF+5KwJqSVVOH+n/4LdvGl6JuTQa0babMQGeCzKK24DiH3fZBc2QvxkpOMtOPMSEvSEtsFp6Vlhb18+bJuhLWEJWmVY9EQT/tDwPOCciAE6IpCQ8Bp5Fz4A0ovfg3xq0AgPRLNjqdRePt71AddAHpfQ9PPSNvNPlhhWlo1LwYHDoagQ6piRnw15GI+mrIi4O7quSitZgw53o7wSigATyBfvGZ+EuWBJ7GfpCW2Cc5Kyz5cwY6wlgrL8klaZnosnWNkmwiAZjIKYGSriziD1MufIeXH/4Cw9AW0lS/R4PkjCl0OoDbyvE5Yzdgr5v0v1pQW4ko8PP4jvBNzUFiUh6ykODy+dRbn7ngitY3tUaDFTHU8HO0d4PcsHQUF+chMDMStk1/he3eSltgeOCstu3a1ZEpsyJK0stEoTI/6YmbYD7KRcN26tjv1NqrDzqIq6BzEpTFQV8Sh+6k9upMd0JvpBHlPHCS9UYyo7KOMa0jLTIjHKxPgffcqLl+zh2f4W5RUlCPvfSbK+8SMsgwaEXilb/DE6QYuX7GDe3gm6upSEZ7aCY3ue9oqZKdko2tBLxyDvCsbkamMhPNLt7jUWJiuQ3JwGno0pr6nfY2s+j4IlUvSMmvtljcIfNUE3Ve7xJ6Gs9JuhiVpFWOxEE5HQzAWiYXhGCiGX2ChNRry9nigL5WZCmcwf2ZA08KMroMpUPQlMu95AxHvGcSDcetISxC7z56UVj4aB/54PGbGXkAwkgjRYBJkvGQo+95C1ZsKdXcaVD1pUPamQd6fBjEvBfNDyRAOJ2FhKIGkJTjNnpK2tTAIow1hGGqMQGfLU3S1PENP83P0NcaDV5+AwbpEXYZqX+oyUPeSOf4SvQ2J6G1MQE9TPPobYjFcH6ZPKDpLtrg1jyC2mT0l7dxEpz5t4E9V61ODmckazE7WYnbCKMyxGYPwmetmJhsNfs5iVAq6vUNwhz0l7TJqQDvPRMhEwLxmM2c+Wjb0/C7BbfamtOxNVbWGvQXNhN0Qxz4GoYKGiRpKJgpdNPpodfdc2Tu3bAE42kBHcJu9KS37dSb7lScTDeOjinFRwbgoY45LGKElWq0uUs1i5GotlMx59jqd4wTBYfbuSGsweLIDLvtXdvcc6zI7AWbDvmazNL4yHutCEFyGM9LK5XKo1TTMEYQ5OCNteno6BgcH9a8IglgL7oy0EgEk8xMrIp2fhEpBd3MJwhDOSDvUlqPrCNBXuZzeilBM9hZBJRfpryIIglPSTrcudwdgM9MWiP6qcIx15a164MHSSBcm9Z9AEHsDTkk72xEK2UDYp0h5YRB0hmG4IZQJ+6eZ1DPXLaUulBmpgzHeW6L/BC34bWWo6hqHSLeZRoOhkreoHGO/H9JAPDOE5ooqDIrp9jHBbawm7cDAACQSy9ejrLTC7ijdA//GMdcdgI2MzcBydwA2Uy1hBtJq0Bx3H+6vKjGqa6+hQdtLb7ztYaVVYqItD2HObvgwwb4mCO5iNWmjo6ORnZ0NmWxpY/f6rCetueikHVrambOUGGa6vZ60gGxuEgJd6VOSlrAdrCYt29LjzJkzyMnJ0VWhMMdmpTUtLBvz0i5D0hK2g1WlZQuznTx5EllZWfqja7MZadcWlo05adWoj7yNZ23sAx16ae/aIfztG/jYncPJ0xfgFJmNrikx806C4A5Wl5bNkSNH8OHDB/0Z02xU2vWFZWNOWhU+2v8BD8rZhxhZabPhcuBP+MklHBklNagtTYXfrctwelqCkXl6UovgDjsiLZujR4+uK+5GpNUJu2b/naVsVNocPL5xGXF1c5CrNNCoFZire4brd0JR1MPXPZ9MEFxgx6T9/vvvdTem1sJSac2PsEvZqLTsmtYV78cNJsOKZoRec8Or+n7QN0EEV9gRaVlh3717pz9jGkuktVxYNpuR1uhGlKYXL+wf4Gl1LxZoYUtwBKtLe/jwYaSmpuqPro05aTcmLJuNSvsRoU4uyBkzWL/KmxB6wwMv63g00hKcwarSHj9+HGlpaVv+ymfjwrLZxJr26gWElwxBKFXqnneeqIrBrXuhKO5m1rQkLcERrCZtWFiYTlip1LKiaGtJuzlh2WxU2lx4nvweV72C8ex1MlJexsD7rh08EksxtsBeQxDcwGrS9vT0QCSyfHeOKWk3LywbY2m1GK1IR3YtDwI5K60GnSmByOpnF6tqzI/3oCIzDYXlOYh54oEHLp4IeVWEXr6EqkYRnMJq0m4UY2m3JiwbY2kJYm/ASWm3LiwbkpbYm3BK2v6qEAzVhWKQTc3Ws3JrHkHsDTgjrXRhGgszA9seuXhW/wkEsTfgjLQEQVgGSUsQNgZJSxA2BklLEDYGSUsQNgZJSxA2BmekNfWVj2h2EErZvP4KgiBYOCMt+3BFb0UgeNXL6asMxXh3HhRStik0QRAsnJLWVIcBXlUYRtpzwB9u3FTEglH9JxDE3oBT0s52sJ0FwldE2B2OseYwJuyfZtIYuiL9lSErdvlM1H9EYcsw5hW7tzlWLZ1Fd3k6ooMC8TynDiO7VBJD1vseL/J4oIIctgenpF17E7w1OgxsEa2GWW+LIRKb3+D/Ca0c4y3vEeRghwcBsUgv68Dkdvwum0CQextfORbRtkMbxCakNRedtKuqM5rbBL81tFI+2ovfID67CxZrq5pBY04U3J2folmggFqr3bXO8ySt7WLz0uqENbmNz8rSikZQ9voRnCOroessYohmFOXp5RiYlzOTcgMUk6jJjIDn43cY3eV5KUlru9i0tGsLy8a8tFqNCHVJXrh89Bt8se8ALrlGo7Bzdvk/ZMkwyhIe4dKRr/FfX3yDY9d9UTAoh2SGh6eX/wP/3//+X/ibv/8lvjjrjpTa6eX1obIKj889Rt6Y8NPPUgqH8dH3KP71n/8e/+tv/xm/3XcJIdnNEGoUGKlNgY/dKexjK1eeuo3YomEo2DdpFZhoL8XriKeoEyxbrhnKgXdYBjonFthegMhyeoC0jhrEOZ3F919/hUOXXPG6fADLhX4k6C95BscLB/DFlwdw1i0B5cn2JK2NYrPSypmsX7DcnLQq9CVdxr5jrkit7ERfdx0ywlxw864P3veyZXIkaH3ljTvuIcio6cLAQDsK4m5i/6FAtEiVmB+qR3qEI+yYUXNoeg5iucF//ooyuB1zQ86o4JMUWo0K0ul2ZD/3wf0HL9Awxse8RIap6jjcunwTT14Vob2/F20FT3H9++/hUzbDvEmOodp3CHH1QTF/WVp1z0tcYabYDUMCRtpxPDv6e3x33h6R+S3o62tFTowrbtx6iJzexeZnwrp43L5yC0+SS9A90IP67CCc3/dr/CdJa5PYpLSm17DGMSOtqAT3/nQSL3gy3dqSXVyqZzuRHuYNr6giTKnGkPXIAyEZzPUSFTQaLTTqGZS9SkHrAnO58fRYo4ZSIYNMKoV0vgDOh52R3jcBMfNaJpNDqWY+g5keV7PTY99s6Nriyrvxys0JvkkVGJOqdVNpLfNz+BU+OHwsHF1KC6U9/itcThmDivkdmZ8A2XA1ngW7ISinn/m9p5Dr5wyvF8UYnGc/g/kf8w9I37Mz+CNJa5PYnLTrT4kNs760qpZAfHEykZlcGqAVofXdCwQHJqBpXoXhvGBcv3gZzoEvkFvTjTFmRJUoWTFWSyttz4D7mT/in/7xH/GP//A3+Kv/+6/w13/39/gH5vX/95vP4VEgXCWtZiQPnu5heFc3sjgd1iOfb0bg8YtImbBM2ucnv0NI73LFSO1sG1Jjn8D/TRsUkiZEuvghsbgLC4u/ug5a09ouNiWt5cKyMSNttRd+fyWVmQQbIkP3x9cIDYxD7QwriQL8rlK8DHTGpcP78d2pmwj90AsR81/6ujeiTEyPdRhL258NF69I5DaNr7hOIeYh+txpJPCkGKrTSzu9EWnbkRbrh8A3LVAIqhHmHoyUsj5ISNo9gc1Ia9mU2DDrS6vue4qDhwPRZfighXIGNW+jERCcjE6RDMI5ISRyFSMGg0aOiZpYnP7TBWRMM1NMvbROEdWM6kZYKK12qgz+7v54U9YLybKTkI7nw/XobeTOKTHa9AFhbh7IHVn+SYr257jgEIt6S6SVtiDO7RHi81ohNPhlZt7dxJckrU1iE9JubIRdipk1rbwdEaeP4eH7dkwuKKBSSjHVnocob2Ydm9wEoXQQ+clJyC5txZRYCbVaAdFENR4ePILnPA204jFUMNLe9f2IaWbKrDX8wlVRDd8LvsgfX757rMN4TascQ36oO9xC36CWEVCuUkMmHEV5rB1+vJvJXKPBXE8ZYj1uITR/ECKFErL5CTQmOeG7y8GoG7RAWi0fpeEecA1NRsPoApQqJcT8fnx4eACfk7Q2Ceel3ZywbMxIy7yeKA2D/Q1HPA6NRmxsBJ48dMXDoNeoH2XGTs0s6lPCmTWnJ/zDYhAXF43wx3dx0+kVepjTWqUQHQWxuHvRHn4J71HfOw39chdQjaIyqwoDC6u/p10hLXN2oScP4V6ucPMJQnRcHKKCvXH7hgveti0WelfND6P0lQ/u3HNHSOxTPIuLQojXVXx9MQyNloy0zBXCjmwEuDkxnxGM2LhniI0MgvuNH/C1E0lri3Ba2s0Ly8ZY2tXPHms1EgxUZuJpqB98/YLw9G0B2sdEjM6LqMXjaC5MQ2zwE/g8foKw+Aw0TSxNhtXMiNWLwtcRCAx7heLWcegaF6yHWoSRrhoUl3Ub3BRSYravFlkJEfD3fYzAiEQUthv0w9WqIJrsRlFKLIICAhDxIhv1zVXIzG/ChEDGao/Gty9RpVuDL6KVTqGjvhwVrZOLUmqlGG8tRlJMEJ48CUIM+9VPVxHe5NOzx7YIZ6XdmrBsjKUliL0BJ6U1/+CEJSFpib0Jp6TtrQgBrzoU/WyqtpoQdJcFkbTEnoMz0solAkjmJ7Y9CipXQ+wxOCMtQRCWQdIShI1B0hKEjUHSEoSNQdIShI1B0hKEjcEZadn6xHMTnSsimOyGQjKnv4IgCBbOSMs+XNFfGYih2uWwD0iMdryHXDyjv4ogCE5Ja9xhYLY9EAPVoRhsycBkf8WmwvYEIoi9BKeknesMg3ww4lNkAxFY6InAZFsYE/ZPM2lhrtNnojkMvGrDDgM7g2a8Ci+zqjA+x+4G0qAzJRCZ/bSXhtg+rCZtR0cHFhYW9K/MY7hhwDjKkRgm7J9rZ7HDQIxBjDsM7Azqtue48CAebcPs45Na9L6LRu6guT17BGE5VpM2MDAQr1+/hkSysgrTWqwnrbmYLkWzO7t8VkoLKMVCSDbQOYQgzGE1aV1dXXHo0CGduAqFYa1B02xW2rX33XJDWoLYbqwq7RdffIHvvvsOiYmJ+qNrsxlp1993ayStZgaFISF4/T4FUQ+v4OvPfoXPvjwN3/f9mBf0ItPvIr75/Wf4/XeXEZTZBP6n0hFyDBbGwv7o5/jVv/4W3130wcehpdr9SvD7ihF29zD+8B+/w5enHyAxzg3HHJakVaHU4zB8a/U/TCPDZHsuAq4fxB///Tf47KtTcIsvxYiAhmLCcqwuLZt9+/bpRly1eu2KRBuVdsMdBjTTyPG4jsOHzyHwfT0mBHx0f/DDoV9/CTsPB7jGlWNgchxNmUG4dfMBEsrHoGb+N5Hvi1Mn7RBd0Inp2TFUxN/HkaNeqBJqIR1tRKLHBVz1SUHL2CSGW7Lgd/Ub/PJEIFr00n60/wOcy1lp1ZjrL0fknZ/g+rwMfcz1g/UpcD1/DX7vGsEnbwkL2RFp2ezfvx9paWn6s6vZiLSm17DGMSXtVdyLK8GoaPFurkYlRZ7D7/G7Cy8xuvTviagLqSH+CEksB1/UivBrN+CX3Q6BvmqbWsaM2I+OwzF9EP2Vb/Dong8Kx5fvDosqQnHyXhxajaXVKjEz3IKCd2UGzbdUaE10htvzAvQL6GYVYRk7Ju3p06dRXFysP7saS6W1vHaUCWm9HBH4rh7T+gpsWrUS3c9/xNHA5sUCaCyaEeTFhCLsWT6G+jNw+7IjotKL0Njahra2NrQ21eFD8Hmc9i9A/cdouLmnYMjgG52Va1rDkZZBq4ZcNIuxwT50d3agvb0V7wOu4W5UHnpn6WshwjJ2RNpTp06hpGT9G0KWSCsfZmS0uHaUeWnBSNuXcAnHg1sNpB1DASNt6LOPGOh8g2uH9+FPf/4K+7/9Ft/q893Rs3iQWIKa7HC4P8rGhEXSaiCd6UNh/GPcvnQWx48cwgFmvf/n3/wCh31ySFrCYqwu7U8//YT8/Hz90bUxJ61lU2LDbF3awbF8eLiEo7BjYrmm8RLqObTmx8LjwQt0G9ROVTTF4pzT89XSqhfQUxqLW+cd8LKmHzNStnOBCp2vHuBBLI20hOVYVdrz58/rhFWp9NPDdVhPWsunxIbZurTDijHkBnvC98UHdEwsQKVWQSocR09jIwYXZBhrfIeAew54XjWEeZkC0rlh1Dy/h2+vRqySVqucRevHYNjfT0CnUA6lfAETvXVIdDmNK8EfSFrCYqwm7dOnT3XCyuWr2lOZZC1pNycsm22QVqPFQm8+ov198OiRLwICAhAUFIjwmFQ0CzRQzA2gKOER7t11hrdvAAKDghDgfgH7rkaj3XikZb/u6fiAwDt2cPJifhZzbUhoBALunsJ5/3fonKLbx4RlWE3akZERSKXLvcjNYUrajU+JDWMkrVaKgZpyNPKmIF0yVKuBoLMA7xv5zFRVj1aE4dYmNLUP6bsAqDA30Ii8lATExsQi8e171PbP6VtTqnR9carev8HzuKdITM1HU2sNPlZ2YU7EXqHBUMlbVCz2AIFaJgCv9gOS4uMQF/8GH6o6MNBehdKmfvDFn/7ZIIh1sZq0G8VY2q0XLDeSliD2CJyUljoMEMTacEra7rJgXZeBHjblW00wOkupwwCx9+CMtCqFWNdlYLvD9p0liL0EZ6QlCMIySFqCsDFIWoKwMUhagrAxSFqCsDFIWoKwMTgjLVufmD/cuCIzo82Qi6b1VxAEwcIZadmHK3jVgRipX85AdQhG2t5BJprSX0UQBKekNe4wMNcRiMGaUPAa32K0q2BTEU736j+BIPYGnJJ2rjMc8sHIFRH1RYDPHOd3RppPW9insM8dD9bsfIcBgrA2nJJ2rU3wnO4woFFCsrAAkcT8Rn+C2A5sQlpzMb3vdmd2+WhnO5Gd9BxJ+X0gbYmdwOalXXsb3w5JO92EV5EBiExvB9WeIHYCm5Z2Yx0G+Mh9/BhxqQkIcvoJ//XLf8Ivf3cArm/bwZ9uxxvP0/iv3/wSv/78NB69qcaEriSNAAW+noh7n4ZYj4v4/Nf/hP/9269gH1WOGY0aU60f4bzvr/GX/+3/wX/7y/+BX554hIL2ueUqGARhBWxW2s11GLiGw0cvI7ygHQKZCMOlETjx6z/ikrMDvF7VY0I4h568SNy1c8Kz4mFm5JxDnvclHD7IiPyuCTMyJaZbUnH/0Fdwz1/sUE8jLbHT2KS0ltWOMiHtw2tweFa6osNAgfMf8fvLb/CpSYC4G2mhbIeBMkxrWGnP4UZkESYWFms4aRVitL+8iuN+Nbo1LElL7DQ2JS17l9jyguUmpDXZYeAnow4Do8jXdRjIw4hO2jvw+9CCWYV+0suIPvjeBafcCsBurydpiZ3GpqTd6Q4Dw2tK64YzbnkkLbEr2Iy0Gy+nuoPSRgQggpHWfBdegtg6NiHt5gqW75C0c214E+qDx88rwFdQlwDC+nBe2o1NiQ2zM9JCMYWa1BDcvngZ9/2SUNs/s7rvD0FsI5yWdmv1j42k1cow2tqIztEZyJYM1WqwwKtGWafAoMOABBO9XejqG4dYq8B4az06xuYgXxpEtWqIx5pR0TyuF10N0XQ/avKzkP6+Ev2TouV/AAjCCnBW2q0XLDeSliD2CJyUduvCsiFpib0Jp6TtKAlCVynbGWB70lFMHQaIvQdnpNWolVArZdse9ucSxF6CM9ISBGEZJC1B2BgkLUHYGCQtQdgYJC1B2BgkLUHYGJyRVjDVg8n+ihWZGqiBbGFCfwVBECyckZZ9uGKwJhDjjcsZrAnGUHM6pPPj+qsIguCUtMYdBgSdgRiqDUFf3SvmfPamMjfRof8EgtgbcErauc4IKIaiVkTCi8RsdwSTKPPpCF+R4dpQeoyR2HNYTdq6ujoIBAL9K/MYbhgwDpc6DGjkQkzyZfpXBLHzWE1ab29vREdHQyQS6Y+sz3rSmotuV9AO7fKZr/DFT275IG2J3cJq0rq6umLfvn2IiIiARCLRH12bzUq79jY+09Jq1SooFXLIZDLI5Aqo1MtlJrQaNVQqpS4KOXNeJodCqYZmqdCFQoaJXEd8ezMNc8w5pcF7CWKnsKq0X3zxhS5BQUFmxd2MtOvvu10trVrOR316IK4f+TN+9ctf4Q/f/IRHSY3g68pSyDFQnYMoNycERnjgx69/h19/9kccdYhB1aAAKq0Uuff/iH/4n3+F/+sv/xq/+M/v4ZLcT1UqiB1nR6Rlw464QqFQf3Y1G5XWfO0oI2kZ6XoyvHHhqgtelvVjXi5m1rwZcD/9AxxT+yDXMtJWJeHe4W9xNyIHPdMiiMbq8cLhNC4GfMTw/OIWP0GRC76/nb1YH4ogdoEdk3b//v1IT0/Xn12NpdKyN50sK/a2UlrtQiPC7z1A5Md2CFX6aa1WDX59JC6cDkATM90dqHoLf1cvfBhcHj8VPa9w5fwTFA/P6UZVkpbYbXZM2uvXr+vuKK+FJdJaLiybldJqBt7B0SUSBW2TBi0ptRBPNyLk3DWkjssYadMR6u2P4mmDUqjKJgSccUBSz4SurjFJS+w2OyLtlStX0NDQoD9jGkuk3UqHAU1/Bu67R6GofcpgHcpIO9OK8IuXkTwsNS2tuh1hZ+8hoWuCmUKTtMTuY3Vpb9y4gZqaGv3RtTEn7VY7DGhnK+Hv6IWX5b3Q999i0GCu4w3unvZEhYidHqci+OFjFIwva62eKYDzTx5418fX1TPWSWufDbH+PEHsNFaV9ubNmzph1Wrz91jXknZjU2LDGN2IUs+gKtYNtz2jkN8xCalSCeFwHeJdzuJGYBUEuhtRrxlBT8EnpQ6j81JI54dR9tQRZ51fomNKoquNLKx+jIMnI9Ap1kCjMRiRCWKHsJq0SUlJOmGVjByWsJa0mxOWjZG0jHLS8QakhHvhnt0NXLt+DTdu2sPZNxF1Y3Lm/OKNqIcXTsDe0wvOd+1w/dplXLrlgYRKHsT6tgHSyRJ4nT6EMzdcEZneggXylthhrCbt7OwsFArLW1KZknZr9Y+NpWVRQzw9iNaaMhQW5KO4ogF9k2JmkszCSpuOEA9PpNS3o7a8GIVFZajtHIFQrvrUgUCrlmC0rRLFReVo6uVjqVsIQewUVpN2oxhLu/WC5aakXY9FaVfdiCIIjsFJabcuLBuSltibcEratqIgtBfrw/59i2krCiRpiT0HZ6QlCMIySFqCsDFIWoKwMUhagrAxSFqCsDFIWoKwMUhagrAxOCPt7HgbRrsKVoT9jlUqHNFfQRAEC2ekZR+uGK4LxGTzcoZrgzHQ+BYSAYlLEEtwSlpTHQZYcXuq48FrTNlUZkZb9J9AEHsDTkkr6IqAcjj6UxRD0ZAOREHYF8Ek2ny6mev0YX/WSD11GCD2HlaTtqqqSrc9z1IMNwxsJosdBrayYYAgbAOrSevu7q6rd2xpa5CtSKvbFbRCWJKW2LtYTdqlGlEBAQGYm5vTH12bzUq79jY+Y2k1kIsWIJFKIBLMYGpiAhNTfAglSv0Gdy1UChnEC/MQixcwOz2NOZEMKg1zXCbCHH8KE+MTmOLPQSRTf9oUz75PrZRhYY6PyaWfKZZDraXd8YR1sLq0bHx9fc2OuBuV1nztKGNpBSgM8ETQ0xD4OV/BoX2f4/P9h3En7AOGxOxWPHZrXhbCnO7DP8IX146dhuuLUvRPDKEk8TGun/oef/rT5/ju2FX4JFZgVLxYiFUtn0VHcSIeXj2O/V98ji++O4nb/iloHRcx4uouIYhtZUekZcNOlfl8vv7sajYirWXF3kxI63cVx8/eQUJZHxbkcsx1f4DXmW9xP2UISp20b+B44iAc4z6ga1oMpXoeLa9dcf6WD9LrRyBRSjDRlAWfyyfg/KYLUq0Ck41Z8He8g4C0BkwIRZjhVSDm9lnce1WPORntyyW2nx2Tdrc7DCxKaw+PV5UY142sDFo1xoq8cerCcwzqqjG+gY+TCzJ7F3viaYXVCLj1AM9K+yBaGjY1CozXxODG+SA0zk+iMjUMj568RZ9BGz1ZRzrCM5owJ1kui04Q28WOSXv79m20tKz9nakl0m6snKopaR3hl1WHKdnSvFUD4VgmHA+5oUK5unKFpj8N9k5RKO/hGxQ4Z94zWovQK7eQ3t2HD4n+ePy8BisberLlVWluTFiHHZHWzs4ObW1t+jOmsUTajZVTtUza+Yn3cDn8ACW6Xj5G0val4NaDaFT0zjBXLsG8Z6weYVftkNbVi/eJfvCJrzWSliCsh9WlZUfYpqYm/dG1WU/azRUsNyXtXTx6W40JyfL0eKoxEhdPh6JDtVpa7VwFfG+741U1D5KlkZOZHk82vMDd836onRtHeUoovAPSwWNLJ+tRjjYgr24YIl0LTYLYXqwq7Z07d9Dc3MyNDgM6aS/j5BUPvK0ZwLxCgfmRWkTfOYarUY2Q6Na0RoXd1HOojXuAay7hyG2bgFSlAL+7COF3f8K9mCYsaGQYrUmFn6MTovM7MSuWYn68A5lP7sIliVnTSklaYvuxmrQpKSk6YVUqy27GrCXt5oRlY0ra27jt6gJXZ3tcPHMSx0//hJveCaibWuowYFyNUQv5dBuyorxw6+KPOHnyBH68YAf38Cx08hcLsatE46jLjoar3UX8eOYnnL10E85+L1DFE0BFzhJWwGrSzs/PWywsiylpt7fDwOKa9klKIZq7utDS2IDGlg4MTov1rS/Zhy/mMDk2Dn3/aD0ayOYm0N/Zouv819zeh3GBzODhCg0UkjmM9nWgmVkGNLd1Y2h6Hkr6kpawElaTdqMYS7v9HQZM3YgiCNuDk9Kufvh/MyFpib0JZ6Qd6cxDe2nktmeSV6n/BCHKwjwRltsEPtsdmiBsFM5ISxCEZZC0BGFjkLQEYWOQtARhY5C0BGFjkLQEYWOQtARhY3BGWv5wI4basldkpCMX4rlB/RUEQbBwRlr2iajRhkCwBcuXMlIXjP761xDPkrgEsQSnpDXuMCDsWhS3qyIWPTWJmwp/uF7/CQSxN+CUtIKuSCiHY1ZEPhQN0UAkkxjz6Y34lIWeCIw1UIcBYu/BKWlN7ae1NLvWYUAlg2CGjxmBQekKgrAie0La3ewwoJ1uwqvIAESmt2PFNlyCsBI2Le36pWiMpVVDND2F2XkB+OOD6Onqx5RUA61GiYXpEfT3dKGzqwcDo9NYkKlWdBCQL/AxwutBR0cnevqHwV9QMEe1UEnnMVabCl/X+3ANyUDbwCTzXvOldQhiK9istOZrR5naT+sG38hQBDy8g7PHbyKxS4y5vmJEu9/A2ZNHcfjoSVy87Y2EvFZMS1n5tFDM9eD9U2/cunAKBw8ewqmzN+EV+xF9zHR4tq8aEVc/x69/+Qv88rd/wskHz1HLWzAQniC2H5uU1rJib6akvYYzlx3xsqIPQrkSStkwUhyO4qJvBtonRZAujKMhPQROTo/wtmYMCrUA9fEuuOwQiJzmMUiVUky35yLo1hk4vGiFiLGTpsfETmNz0lpendGUtDfg+LwYowuLU1jF4Euc/d4NFcLlCmxacT+ywv0QGF+IkalKPLnlhoQKHsQGHQYm6p/h1nl/1EtIWmLnsSlpN1ZO1ZS0K8vNSMs98OW1TMzrXunRitDwJgoh0alobUiBvVP06g4DY3UIu2KHjDFmZUvSEjuMzUi7MWHZWCBtBSPt9YxV0tYvSduYCvsHpqVl24JkjJO0xM5jE9JuXFg25qVVDL/G+e8foHzeYHos6kVW2BMExRdhdLoKfvauSKjsXzk9ro1jpseBaJDqp8cRAYhIa8diJWSCsC6cl3ZzwrIxL61GPop0x6M4/zhd109WujCB2rQg3L/P3oiagEI9j6YXLrh0PwBZjWOQKBWYbM+F3/VTcIhvh4T5MVphB96GeMEzqgBjbLNpaiZNWBnOS7s5YdmYlxZaDQQDZXjqdg0nDn6Db749iDM3PZGY344ZfW9ZhaAP+c98cP30QXzzzT4cOHkVD+MKMCDUF2JXC9GWGwW7I1/j27PeyGbkpmKPhDXhtLSmn3SyNMbSaiCdm8GcWLaiQ7tWq4J4bhIjQwMYGBjC2NQcxHJmxNSfZ9+nEAswOTqEAR4PQyOTzM9QGpzXQimdxzRzfnBkCvNSw3MEsf1wVtqtFyw3lpYg9gacknauMxLywRiI2fRvNdGYbCZpib0HZ6Qd6ylBd9Xzbc/0YK3+Ewhib8AZaQmCsAySliBsDJKWIGwMkpYgbAySliBsDJKWIGwMkpYgbAzOSDs1UANeY8qKDLZkQjTTp7+CIAgWzkjLPhE13hiI2Y7ljNYHobcmASJ+v/4qgiA4Ja1xh4H57kVx20sj0Fkeu6lMDVTrP4Eg9gZWk1aj0Wxob6mpXT5sFMMxkA5HMYk1H17kp0j6I5mRm549JvYeVpM2NzcXQ0NDFou7lrSWZtc6DBDEDmM1aV1dXeHh4YHh4WGLxN2stJ8qW6wQlqQl9i5WlfaLL77QiTs4aL5V5WakXb8UjbG0KswND2KcP4WRvjbUVTViUCjCaEcHJpcqWTBoFfMYHx3B+KwEWvY9gwPM3/kY43WgvroCFTWN6BkTMmcIYnewurRs2L+zI+56bFRa87WjjKVly824wCvIHwGPHsDuiguSO9oQevw4EoYMai1OViMuPBBxH3qgxBzyvB3gGRaEwCfuuH39In786Udcd41FPZ+0JXaHHZGWzcOHDzEwMKA/u5qNSGtZsTdT0l7Dj9fd8bZmAAsKFZTSPgukPY+Tl1zwunoAIqUKwoEKhN84iDspI1RWhtgVdkza/fv3Iz09XX92NZZKa3l1RlPS2sH5RQnGRIuSqi2S9gocEyoxJVm8RquUoPvtLZzwqaCSqcSusGPSuru7o79/7YckLJHWcmHZmJJ2ZTVGy6S9A78PLZhV6MdVlRSD711x2i0f0sUjBLGj7Ii0Li4uZm9GmZN2Y8KysUBaxQDCTx1F/MBGpXXDGbc8kpbYFawuLfsnj8fTH12b9aTduLBszEurUU4j4cJX8K2V6V6zyAaKEezzEFHvSVqCm1hVWjc3N52w7NNR5lhL2s0Jy8a8tFq1DA1hJ3Dw7it0zEggnulBXpwTDp+yQxSNtARHsZq079+/t1hYlrWklbHCmpTSXMxLy4y1EI1WIdL+MP78x8/w5x/O42FAANz8QvGCpCU4itWkVSqVW372eGsFy42l1UIpk0CmUEFj8GtptWrIJQsQCgQQzosglckgk8khV7LrXLZ7APMe5u/Lb9Ey02opxNRJgNglrCbtRjGWljoMEIRpOCXtTHskJLxoLLDp2WqiMN4UStISew7OSDvJq0RfXdK2Z2akSf8JBLE34Iy0BEFYBklLEDYGSUsQNgZJSxA2BklLEDYGZ6QtKSnBxMSE/hVBEGvBGWlZYaVSejCQIMzBHWn7ytBTk7gi/fVvsDDdrb+CIAgWzkjLPhE10RwIQddyxhuC0FP1jBG3R38VQRCcknbaqMPAQs+iuG3FIWgvCd1w2opDdSO4JWg1GqiUSqjX2QWgUcqhtGzTEkFYDU5Ja3o/bQxkI1GLGwjMZSDyU9guAxNNlm4YUGKiLQ9hzm74MLGWlWqUu/0Aj0ql/jVB7A6cl9aSsBvlV++73cguH0ukBYS8ZvQLaUMesbvYvLSfKlusENY60hIEF7BpadcvRWNCWtUCxrrrUfIxB1nZ71FY2YJxESupXloHByTVd6G2+CPef8hDeTMPs5Klze5aTLeUoJXPXq+FXDSDgdYW8MZ4aCzLx/v3uSiu7cTkghykPWFNbFZa87WjjKVVYqohHaFeD3D/3l3cvncHt+1vwft5HWbUrLQf8PjcEdz1DcIjNyfcu3MT1+zd8aKoGwI5q6EaRXf/C/dL2DWtCtO9pQi6eBpukWF47OmK+3du4NKVe4h834wZKWlLWA+blNayYm9G0mr5yPN1gGvce3TNyqBSiTHckIyH96PRzIymE23Z8Dh9EC4vKzE4J4FsYRTVL9xx1T0R9SMLzOhpLG0BPE98g3uxBejhSyAXT6E2wQVXvRPROCxZ/EyCsAI2J+3aa1jjGEsrQGWkC+54hSKtrBXDczJoNDKMd/eCr2ClzUXQfQekDyz36FFPF8HzxiOktQxDpjWWthCBdtfwqnO5/Kqi4zVue0SjtJNPU2TCatiUtJaNsEsxnh5rsDBUi8z4EHi7OuKO3S24Br5C7bicObfGjSh1F57auSC+pg8ijbG0JQi/54CsMYNC57wMOLpHoaR9kqQlrIbNSLsxYdmYuBHFqCQTToLX0YTqog94HXIfF2/EoFW6hrSaLsTddMVzVtpVI60paTPhRNISVsYmpLV8SmwYI2nlY2iqbcXIjGhRKK0G4ukm+B4/gmf9ct2NqMB795Davzw91kx8gOtNH2Q2j0JO0hIcgfPSssJurmC5kbQKHt563YdLaAqax0RQyIToyXuC4/vskT+3eCPK+cCfcd7nNeqHZyGa6sK7J1dxwfM12iek0K66EUXSErsD56Xdvg4DzMg6UI4Y57P4/Ff/G3/79/8Hvz90E8+rJ6HSMtK2FyHq/i34RXni1J//Db/4l99i/5UAfOyaYkZZ9v0kLcENOC3t4vPEm42pNS1B2D6clHbzU2LDkLTE3oRT0k61RmChNwoCNl1bz1gDdRgg9h6ckXZ6qA4DzRnbntnxNv0nEMTegDPSEgRhGSQtQdgYJC1B2BgkLUHYGCQtQdgYJC1B2BgkLUHYGJyRdrS7EJ3lsSvSUx2P+cl2/RUEQbBwRlrdE1EtiwXKlzLZFIiuihgIxtug0ag2Fa2WHt0n9hackpbfFgRx33JEvUGMuEHoKNlc2oqC6DFGYs/BKWlN76eNgXwkmknsulncERT1KVJeFCabacMAsffgvLSWxPSuINrlQ+xNbF7atUvRkLTE3sSmpf0krKUdBpRCDDaVICv5JV4kvkb6xyoMCtnKExpIZsfQWVOD9p4WFGZmoKCuF6N9zahqHcCsxKA6hUqGwZqPaBhjK1gQxM5js9KuLywbY2kVGKtMQoCXO9w9veD56CFcHOzgEl6GSV2HgTz4XzwDl9BQBPiF4HVBE3qqE+D08Bkq+uewpK1ivhURly4ivpstvUoQO49NSqtbww4ZS2ocI2m10/jg4wiPF3noFcihVkkw1vYOfq5xaNF3GHj40xF4ptRhbF4GlVYLjbQbL1zdEV/eiwXVYkcfYWMYLl1LgEFNc4LYUWxO2rXXsMYxlnYeNbEuuPngCV7l14PHl0KjkWN6cAgCJSvtYgnVNJ5i8XodCvQmecLxWRkjMmupCnWBJ3Hn7dinkZcgdhqbktb8lNgwxtNjLSQTbch/EwUf59u4evYsbj6MRfkI29ZjcXpsqtWlcjgLzvdjUD06D7WiFU9O2iFnih7YIHYPm5HWsimxYUzciIIGCvEcxgd70dFYhXfRDjhzLhgNuunxGv1p1VPIcruLqKoRzFc/xsn7HzBPzhK7iE1IqxPWoimxYYyklY2gtqIBg9MLi1NbrQYyQSeCTh5EbK9sbWkZ0ec+euFySD5ynE7gYblIf5wgdgfOS7s5YdkYSavk4Y37Ldz1YzsILEAhm0Nn9kMc+vIuioTrjLQM2oVSeFy+gKM/uKFRtnhDiiB2C85Lu30dBhhvp5rwyusKvvrNP+Hv/uEX+NMJB6R0LLBnMNVZjDivxygwuV5VoM7/BE6ENEBJzhK7DGel3fwIuxRTa1qCsH04Ke3WhWVD0hJ7E05JO9EcDkFXJGbYtG89I/XUYYDYe3BG2pnRFox05G57BJPd+k8giL0BZ6QlCMIySFqCsDFIWoKwMUhagrAxSFqCsDFIWoKwMUhagrAxOCPtcEcu2otDV6SzPBqCsSYqOE4QBnBGWvaJqOnWQIh6lzPVHIju8kjMDjdAKRdtKmoV1XIi9hackpbfFgxx38pMtwQz4lqYsqAV6SimDgPE3sNq0goEAiiVlpcZNd7ls7zbhzoMEIQhVpM2OTkZ9fX1UKksK1u4lrSWxPSuINrlQ+xNrCatq6sr7O3t0dDQALXafO3CzUrLCksdBoifE1aV9osvvoCdnR3q6ur0R9dmM9J+EtbSDgOKWfRU5eBlTBiCQiMQn1KAnjkVVOJZdFZko7RPhOXCFBpMtxejoLZ7scOAbBLNecmICQtGcEQc3n6sxfA8FVIldh6rS8vm2rVraGxs1J8xzUalVTBZvzqjsbRyDBfH47GnJ3yDwxAeEQIfl5u4++QjBmdHUBB7H/cjazC/ZK1mEh8DneD1ohgjC2J0p/rinosPgsMjEBrqB48HTnjyohp88pbYYXZEWjY3b97UrXHXYiPS6tawG+4wMIkcbyd4vyoCb17BTNllmOotQLj3c7TMi9Bb+gIe94NQI1i0Vj1RDD9XHySV9UKsGsaL82fwsLAPIqUGKvkcuqve4XnsO/SxZZMJYgfZMWn379+PjIwM/dnVWCrt2mtY4xhLK0LDMxdcvfsQT99VomdKDI1GibnxCSyo1JjnVeLFIwdEVfKZKbIao4VRcPV/jkoeM2XWClHkdQZH7wcjq7wVo0IFVAop5qZnYNCbiyB2hB2TNjw8HHNzc/qzq7FEWvNTYsMYT4+1kM32ozLzGR47XsePhw7gx7vBKBiU6s5qxMMoee0Pz/AiTCsnURDxBIEJ+RiUsCOvFpLJNnx8FYIHN8/h5OHjsPN9jbpxenCD2Hl2RNqgoCCIROsX+TYnrWVTYsOYuBHFyKeSiTHHn8AorxNF8Y44dtQH1WL2lBT95SkI8g5GcXMJIv2CkFTYi+Uyx1oopfPgT46C116FNwH3cP1+PNoXnSeIHcPq0rLCzs/P64+uzXrS6oTdcHVGI2llg6gsrgFvcl7fPEsLhWQAEad/QFT34hHpUBVeRXjB3cMHfmFxKOXpF6ziDuRk1YAv1z8solViorMYIffuIH2Y5sfEzmI1aT09PREREWF2hF1iLWk3JywbI2mVg0j1vIVbnrEobB3G5DgP1UmOOPS9ByqXfkXlBEpTH+PYH4/B83kehpca6Ck6EHH2GK6FZqJ1cBrjvAakh9zBlVuxaKWRlthhrCZtTU3NumtYY0xJu3lh2ayeHqv4bUgNuIujX/4O//bvf8CBS55412P4j4oKQ2UJsL98A1EFgzB8CFMxVoUYp3P46ne/wb//YR/Ou8agbIiMJXYeq0m7UYyl3ZqwbEytac2glYFX/BohgVEoHaGu0QQ34aS0WxeWzQal1Wogn+tCVow/AuOKMEHOEhyFU9KONYbrOgNMsWndaiIwVBtimbRqOWZ4VUgK9oGLRxAymmeo0zvBWTgj7dxEp06w7c48v1//CWujVYkx2piJUN8IpJZ2Y45GWYLDcEZagiAsg6QlCBuDpCUIG4OkJQgbg6QlCBuDpCUIG4Mz0mo1amg0qlWhQuUEsRLOSMs+XNFeFIiO4uV0loVhZqgGGrXlpVgJYq/DKWmNOwxMtwSipyIC0wPVkIn4m4pSzm6WJYi9A6eknWkPhqQ/5FPEfSHgt4agryqYCfunmVQy1+nTWxGMzlLqMEDsPawm7fT0NORyy8uxGG4YMMy2dhhg1sgymZJZKy8XSiUIW8Nq0r58+RKVlZUWtwZZS1pLotsVtKoUzepdPtrZNmTnNWJSSCUUCdvFatKy5WauX7+uE5crHQbU3a9x1SEWTUMC0FhL2CpWlZatEXX16lWUl5frj67NZqRdvzqjobRqjNRkIuL+Ifzb777Fhet38SStA1LZJMpevEF1byMy4oLg4+2D8Fcf0TYmwOxgA969CMEjLx8Exeeia0YKdlatVvBRk5yC6q4apEb7w5t5T9irXLSNLtB2PmJHsLq0bC5cuIDq6mr9GdNsVNqNdRjQYKavHrmRdvjqh0t4HPYUWTWjkIk78eTrL3HlcRBiXybh1bMQuN+2h7PbIwRHRyIiNhGJL6LhbXcet2IrIZCroRB3I/TIn3HJyx+xCa/x+kUEvJ3vwiMyE50ztKePsD47Ii2bS5cu6abKa7ERaU2vYY1jfnqslnbB95vf43ZyG6bFCqjk8+jMjsSNY8fgEPMRfbNSKBUSTFWH4/TpQDTOSSEXdyH0+J/hlNoJvogtWi7CWHUSvNwe42XZEKgSMmFtdkza7eowYHnBcsukDTh0CLG9yzfLxJ0f4O/phui8geXCbrIyuHzngCy+iJG2G5E/HUdc3/KoqmV+TnKAHyKSKzFNi2XCyuyYtHFxcRCL137QwRJpt9ZhwLS0gUeOI2FoeTWq6C9CZHAgEsommEm1HnU9Hn1rj7d6aaPOnkL8oMEKVjOGvIgghL0sANWDI6zNjkjL1j9WKJaKCJvGnLSWTYkNs3lpo0KCVknrs660I8gJZaRNLMIY3Y0irIxVpf3mm2/w9OlTs8KyrCft5qozmpC2JwnXbkehhjenu9O7OWm7EH7mWwTVzEOp1kCrVTO/WylCvR8h5l0bxDQ9JqyM1aT18fExOyU2ZC1pNycsGxPS8kvgeek2AtPK0T7Ih1TSuQlpO+H/3S/w1ZVHeFvagNamUiQ+uYcbblEoG5Do30AQ1sNq0rJNpAUCgf6VeUxJu/EpsWFWSwuI0J4ZiGvHD+CI/SvwFnhIeuCGD5PL2/+UYw1If/sGH5pnlqXVdCHhXjAKBezd425Enj4I77dJ8Lp+Cge/P4ILLpHI65yC+fkEQWwdq0m7UYyl3fwIuxRT0m4d9nvaVWtagthBOCnt1oVlQ9ISexNOSTtSH6brDDDBpmmrCcdAjYUdBjYASUvsNpyRdn66D1ODtdse0dyw/hO2B7VyFo3ZmWgV0m1iYnfgjLQEQVgGSUsQNgZJSxA2BklLEDYGSUsQNgZJSxA2BmekVStlUMpFRhFToXKCMIIz0rIPV3SUBKKrdDnd5WHgD1RAraLqiQSxBKekNe4wwGde91ZGYLKvDKK5kU1FIbV80wJB2AKcknamPQRSXuinSPpDMdseCl5NCBP2TzOpZq4zSHdZ8LY/xkgQu43VpB0fH4dMZvm01nDDgGHYDgOKkWhdqZn1sthhIPpTTHYYIIg9gNWkjY+PR1FRkUVVK1jWktaSmN53a51dPgSx21hNWrbcDFs2tbi4GCqV+Wpnm5VWN8qa3ChP0hJ7E6tKyxZ1O3/+PAoKCvRH12Yz0q4tLBsjabUitGWn4GPzIBZU+h06WjWE7SkIS21frDqhEmGsJQ9PfR/gtv1tOHqF4139MBYU7PVCVMbEoJjXjoxQL3g+fo5a/nLFC4LYKawuLZszZ86gpGT9EW+j0q4vLBsjaTUzyPVxRlB2Pablemk1KkzkOePQgzxIocJsTymeejvAKzoZme+zkBTtiRu3ApHbNQWFdgKJp/fhtLM3opPeoaiyGaNS2p5H7Dw7Ii2bn376aV1xNyKteWHZbFBarQTdxUl44hKIkkkZVBo1ZPNDKHj1FsXdU5CpWWl/gx+fNYMvVkCj1VITL2JX2DFp2Q4DmZmZ+rOrsVRay4Rls9GRVo3ptlw8uXES130SUNQ6jHmZCgqJBDKlmhGUlfYbPG6lxh/E7rJj0iYkJKx7J9kSaS0Xls1GpWWXuFJM91Tglf9dnN73B/xh3xk8Sm/GjJQtLcNK+z0Cu+mxSmJ3sbq07AibmJioP7o25qTdeDlVI2khRL6/A/wyazEpW5Z2PNcRB3XSaqFRq6BUsaMqe04Bfstb3D1+FeGlvVjQTY9JWmL3saq0P/zwg05YbnQYUKDl6X3cDctG17ScWZNqoFiYRmnQMXztyEirmsdASxGyPzSAL1NCrdFAJZtAprsdHme3YEZO0hLcwGrS+vv764SVMGtCS1hL2o1NiQ1jLC0gaU+G48278E94h/KacuS+DsSts9/jADvSasTgVSXD2/4egl5/QHF5GfKSA2F/xQMpjaPMeZKW4AZWk7a1tRXz8/P6V+YxJe3Gp8SGWS0tGDH7S17C685FnDl3FW7hOWhuykBwYpPue1qNbBZdJUl4fO8qfjp9BpdueyKhpBtCGbumnUNRgBcyRqktHrG7WE3ajWIs7eamxIYxIS1B7AE4Ke3mp8SGIWmJvQmnpB2sDcV4UzhG2TRsNWHMGpW25hF7D85IK5odxuxY67ZHIhzXfwJB7A04Iy1BEJZB0hKEjUHSEoSNQdIShI1B0hKEjUHSEoSNwRlpFbIFyET8lRHPQK1kN80RBLEEZ6RlH65guwr0ViynpyIUU30lUCnE+qsIguCUtKY6DPRVhmO8uxDCqd5NhR2xCWIvwSlpZ9rZzgJhKzLXGYqhejZh5lMbsiK95fQYI7H3sJq0Q0NDFu+lZTHcMGAY6jBAECuxmrSxsbHIzc2FXG5ZIbS1pLUkOmlX7QqiXT7E3sRq0rLlZs6ePasTlzoMEMT2YVVp2cJubKHynJwc/dG12Yy0awvLxlBaLYQtWXiRUYY+vvxTvWK2+mLt84dIbJIyLxSY7a/Cyyf3ceXcT7ho54qYnEZMiZb+wWErVwQit6cJr7zv4a5zOMonqcMAsfNYXVo2x48fR15env6MaTYq7frCslk50iqGc+DlFoYPLWPQdflgUIlr4HX0OjImlVgYacBLz5twDkxCbnEJ8lIj4HjNCXHFXRDovGVrRH2Bo3fcEZtZgvq2vuVSrASxg+yItGxOnDixrrgbkVYn7KCxpMYxmh6rJ5Hj64aw903g62UTVXjiiH02ZtlyqbxapMenoVUgg0qtgUouREXUfbgnFmNgnr2elfY3OPuyGwty1afRmiB2mh2Tdtc7DDCa8QuCcCfkA3qn2ZtjCpS6focHRWKdgBqNCkqFEssTXg1637jC7Vk++mbZo6y038Kvw7LWnQRhLXZEWlbYjIwM/RnTWCKt5cKyMXEjSlQDv7v++NA1CYWoGPcOeqBO56AWaskUmrPDcPPIF/jN//lH/N3f/A3+x1/+Fb7xyDGQlkqoEruP1aU9cOAAkpOT9UfXxpy0W+8wwCJFbagDHme3YSjDASf9asEWR2VLq/ZVPIPdiUsI/tiGCTE74qrRk+QC16eGIy1JS+w+VpX2yJEjePv2LZRK8/+hryftxkbYpZiSFpA3x8DOMx7hl84iqm3x4Q+tYgZN75mps2sqBmUqqFVyLPAH8P7JZdiF55K0BKewmrQhISG6EVYqtWyXzlrSbk5YNqalhaITsXfO4MCPYeiW6r/O0Ugw1JCMhzfuIfhVBnKy0/EqOgRuF7/HGb8cdPPZ60haghtYTdquri4sLCzoX5nHlLTb3mFAhwq8nDCEZPdApl66B6yFSjSJpuxoeDrY446TJ6LTK9BSmo6kvEaMCtm7xWwn+BDkTugm1ASxa1hN2o1iLO3mR9ilrCUtQdg2nJR268KyIWmJvQmnpOVVh2Lk0za7rSYUfZW0NY/Ye3BGWsn8hMlN7FsNbYIn9hqckZYgCMsgaQnCxiBpCcLGIGkJwsYgaQnCxiBpCcLGIGkJwsYgaQnCxiBpCcLGIGkJwsYgaQnCxiBpCcLGIGkJwqYA/n+pHMGD5eKeMAAAAABJRU5ErkJggg==;" vertex="1" parent="1">
          <mxGeometry x="90" y="30" width="237" height="563" as="geometry" />
        </mxCell>
        <mxCell id="g2LWMqXtfTZeT1RegNXu-2" value="etc contains most of the system configuration files" style="text;html=1;align=left;verticalAlign=middle;whiteSpace=wrap;rounded=0;" vertex="1" parent="1">
          <mxGeometry x="190" y="150" width="300" height="30" as="geometry" />
        </mxCell>
        <mxCell id="g2LWMqXtfTZeT1RegNXu-3" value="Home contans folders corresponding to each of the users registered on the system" style="text;html=1;align=left;verticalAlign=middle;whiteSpace=wrap;rounded=0;" vertex="1" parent="1">
          <mxGeometry x="190" y="230" width="340" height="30" as="geometry" />
        </mxCell>
        <mxCell id="g2LWMqXtfTZeT1RegNXu-4" value="var is usually used to hold most of the data on the system&lt;div&gt;var/log contains all of the system log file which can help in debugging problems&lt;/div&gt;" style="text;html=1;align=left;verticalAlign=middle;whiteSpace=wrap;rounded=0;" vertex="1" parent="1">
          <mxGeometry x="170" y="573" width="431.5" height="30" as="geometry" />
        </mxCell>
      </root>
    </mxGraphModel>
  </diagram>
</mxfile>
